<svg width="512" height="490" viewBox="0 0 512 490" fill="none" xmlns="http://www.w3.org/2000/svg">
<path d="M502.24 244.888C502.24 374.543 391.578 480.012 254.611 480.012C117.644 480.012 6.98242 374.543 6.98242 244.888C6.98242 115.233 117.644 9.76367 254.611 9.76367C391.578 9.76367 502.24 115.233 502.24 244.888Z" fill="#FFE501" stroke="#2B2B2B" stroke-width="9"/>
<path d="M171 216.337L170.833 257.82V285.195C170.833 302.662 167.028 315.706 159.417 324.327C151.918 332.947 142.46 337.258 131.044 337.258C119.74 337.258 110.898 333.676 104.519 326.51C98.2511 319.233 95.1172 311.171 95.1172 302.326C95.1172 293.48 97.8033 286.147 103.176 280.325C108.548 274.391 114.76 271.424 121.811 271.424C128.974 271.424 134.626 273.551 138.767 277.806C142.908 282.06 144.979 287.266 144.979 293.424C144.979 299.583 142.852 304.061 138.599 306.86C137.256 307.644 136.193 308.036 135.409 308.036C133.731 308.036 133.003 307.196 133.227 305.517C133.227 305.404 133.395 304.732 133.731 303.501C134.402 300.478 134.738 297.511 134.738 294.6C134.738 291.577 133.507 288.835 131.044 286.371C128.582 283.796 125.392 282.508 121.475 282.508C117.558 282.508 114.2 284.468 111.402 288.386C108.604 292.193 107.205 297.007 107.205 302.829C107.205 308.763 109.276 314.082 113.417 318.784C117.558 323.487 123.21 325.838 130.373 325.838C139.439 325.838 146.49 322.199 151.526 314.922C156.563 307.755 159.081 297.791 159.081 285.027C159.081 254.461 158.969 231.508 158.745 216.169C158.633 200.831 158.577 190.418 158.577 184.932C152.086 185.939 146.546 186.443 141.957 186.443C117.782 186.443 105.694 182.916 105.694 175.862C105.694 171.944 107.82 169.984 112.073 169.984C112.633 169.984 116.271 170.712 122.986 172.168C129.701 173.511 135.969 174.183 141.789 174.183C147.721 174.183 154.66 173.511 162.607 172.168C170.665 170.712 175.087 169.984 175.869 169.984C180.57 169.984 182.92 171.888 182.92 175.695C182.92 179.389 179.059 181.909 171.336 183.252V185.603L171 216.337ZM266.119 257.148C266.119 265.322 266.679 272.151 267.797 277.638C269.03 283.012 270.541 286.035 272.33 286.707C273.002 287.043 273.786 287.266 274.681 287.378C275.688 287.491 276.359 287.659 276.695 287.882C277.143 288.106 277.367 288.554 277.367 289.226C277.367 292.361 276.527 294.881 274.848 296.783C273.17 298.575 270.708 299.471 267.462 299.471C264.329 299.471 261.866 297.455 260.075 293.424C258.285 289.281 257.389 283.907 257.389 277.302C254.367 283.796 250.17 289.113 244.797 293.257C239.425 297.4 233.326 299.471 226.498 299.471C219.783 299.471 214.019 297.232 209.206 292.753C200.253 284.468 195.775 272.767 195.775 257.652C195.775 245.447 199.301 234.811 206.352 225.742C213.403 216.673 222.469 212.139 233.549 212.139C241.943 212.139 249.219 214.994 255.374 220.704C255.374 214.994 257.501 212.139 261.754 212.139C266.903 212.139 269.476 216.001 269.476 223.727C269.476 231.34 268.358 242.482 266.119 257.148ZM256.381 258.66L255.542 232.796C248.939 226.302 241.943 223.055 234.556 223.055C227.169 223.055 220.847 226.359 215.585 232.964C210.326 239.569 207.695 247.575 207.695 256.98C207.695 266.273 209.431 273.887 212.899 279.821C216.369 285.644 221.183 288.554 227.337 288.554C233.494 288.554 239.146 285.812 244.294 280.325C249.555 274.838 253.584 267.616 256.381 258.66ZM308.81 178.55L307.97 234.811L308.81 291.073C308.81 296.671 306.683 299.471 302.43 299.471C298.178 299.471 296.051 296.671 296.051 291.073L296.89 234.811L296.051 178.55C296.051 172.951 298.178 170.152 302.43 170.152C306.683 170.152 308.81 172.951 308.81 178.55ZM340.814 255.973C340.814 265.265 343.389 273.158 348.536 279.653C353.685 286.147 360.12 289.394 367.843 289.394C375.678 289.394 382.281 286.147 387.653 279.653C393.138 273.048 395.879 265.097 395.879 255.805C395.879 246.512 393.25 238.619 387.989 232.124C382.842 225.519 376.405 222.216 368.682 222.216C361.072 222.216 354.469 225.519 348.872 232.124C343.5 238.73 340.814 246.68 340.814 255.973ZM339.974 287.546C332.587 278.926 328.894 268.401 328.894 255.973C328.894 243.545 332.644 233.019 340.142 224.399C347.641 215.666 357.098 211.299 368.514 211.299C379.931 211.299 389.332 215.61 396.719 224.231C404.106 232.741 407.799 243.264 407.799 255.805C407.799 268.233 403.995 278.758 396.383 287.378C388.885 295.999 379.427 300.31 368.011 300.31C356.707 300.31 347.361 296.056 339.974 287.546Z" fill="#2B2B2B"/>
</svg>
