<svg width="54" height="54" viewBox="0 0 54 54" fill="none" xmlns="http://www.w3.org/2000/svg">
<path d="M52 27C52 40.8071 40.8071 52 27 52C13.1929 52 2 40.8071 2 27C2 13.1929 13.1929 2 27 2C40.8071 2 52 13.1929 52 27Z" fill="#FFE501"/>
<path d="M17.1007 24.4832L17.0808 29.395V32.6363C17.0808 34.7044 16.63 36.2489 15.7286 37.2697C14.8403 38.2905 13.7201 38.8009 12.3679 38.8009C11.0289 38.8009 9.98161 38.3767 9.22595 37.5282C8.48355 36.6665 8.11235 35.712 8.11235 34.6647C8.11235 33.6174 8.43052 32.749 9.06687 32.0597C9.70321 31.357 10.439 31.0057 11.2742 31.0057C12.1226 31.0057 12.7921 31.2576 13.2826 31.7614C13.7731 32.2651 14.0184 32.8816 14.0184 33.6107C14.0184 34.3399 13.7665 34.8702 13.2627 35.2016C13.1037 35.2944 12.9777 35.3408 12.8849 35.3408C12.6861 35.3408 12.5999 35.2414 12.6264 35.0425C12.6264 35.0293 12.6463 34.9497 12.6861 34.8039C12.7656 34.4459 12.8054 34.0946 12.8054 33.7499C12.8054 33.392 12.6595 33.0672 12.3679 32.7755C12.0762 32.4706 11.6984 32.3182 11.2344 32.3182C10.7704 32.3182 10.3727 32.5502 10.0413 33.0142C9.70984 33.4649 9.54412 34.035 9.54412 34.7243C9.54412 35.427 9.78938 36.0567 10.2799 36.6135C10.7704 37.1703 11.4399 37.4487 12.2883 37.4487C13.3622 37.4487 14.1974 37.0178 14.7939 36.1561C15.3905 35.3076 15.6888 34.1278 15.6888 32.6165C15.6888 28.9973 15.6755 26.2796 15.649 24.4633C15.6358 22.6471 15.6291 21.4142 15.6291 20.7646C14.8602 20.8839 14.204 20.9436 13.6605 20.9436C10.7969 20.9436 9.36515 20.526 9.36515 19.6908C9.36515 19.2268 9.61704 18.9948 10.1208 18.9948C10.1871 18.9948 10.6179 19.081 11.4134 19.2533C12.2088 19.4124 12.9512 19.4919 13.6406 19.4919C14.3432 19.4919 15.1651 19.4124 16.1064 19.2533C17.0609 19.081 17.5846 18.9948 17.6774 18.9948C18.2342 18.9948 18.5126 19.2201 18.5126 19.6709C18.5126 20.1084 18.0552 20.4067 17.1404 20.5657V20.8441L17.1007 24.4832Z" fill="black"/>
<path d="M28.3673 29.3154C28.3673 30.2832 28.4336 31.0919 28.5662 31.7415C28.712 32.3778 28.891 32.7358 29.1031 32.8153C29.1826 32.8551 29.2754 32.8816 29.3815 32.8949C29.5008 32.9081 29.5803 32.928 29.6201 32.9545C29.6731 32.981 29.6996 33.0341 29.6996 33.1136C29.6996 33.4848 29.6002 33.7831 29.4014 34.0084C29.2025 34.2206 28.9108 34.3266 28.5264 34.3266C28.1552 34.3266 27.8635 34.088 27.6514 33.6107C27.4393 33.1202 27.3332 32.4839 27.3332 31.7017C26.9753 32.4706 26.4782 33.1003 25.8418 33.5909C25.2055 34.0814 24.483 34.3266 23.6743 34.3266C22.8789 34.3266 22.1961 34.0615 21.6261 33.5312C20.5655 32.5502 20.0352 31.1648 20.0352 29.3751C20.0352 27.9301 20.4528 26.6706 21.288 25.5968C22.1232 24.523 23.197 23.9861 24.5095 23.9861C25.5038 23.9861 26.3655 24.3241 27.0946 25.0002C27.0946 24.3241 27.3465 23.9861 27.8503 23.9861C28.4601 23.9861 28.765 24.4434 28.765 25.3582C28.765 26.2597 28.6324 27.5788 28.3673 29.3154ZM27.2139 29.4944L27.1145 26.432C26.3323 25.6631 25.5038 25.2786 24.6288 25.2786C23.7538 25.2786 23.0048 25.6697 22.3817 26.4519C21.7586 27.2341 21.4471 28.182 21.4471 29.2955C21.4471 30.3959 21.6526 31.2974 22.0635 32C22.4745 32.6894 23.0446 33.0341 23.7737 33.0341C24.5028 33.0341 25.1723 32.7093 25.7822 32.0597C26.4052 31.4101 26.8825 30.555 27.2139 29.4944Z" fill="black"/>
<path d="M33.424 20.0089L33.3246 26.6706L33.424 33.3323C33.424 33.9952 33.1721 34.3266 32.6683 34.3266C32.1646 34.3266 31.9127 33.9952 31.9127 33.3323L32.0121 26.6706L31.9127 20.0089C31.9127 19.3461 32.1646 19.0147 32.6683 19.0147C33.1721 19.0147 33.424 19.3461 33.424 20.0089Z" fill="black"/>
<path d="M37.2149 29.1762C37.2149 30.2766 37.5198 31.2112 38.1296 31.9801C38.7394 32.749 39.5017 33.1335 40.4165 33.1335C41.3444 33.1335 42.1266 32.749 42.763 31.9801C43.4126 31.1979 43.7374 30.2567 43.7374 29.1564C43.7374 28.056 43.4258 27.1214 42.8027 26.3525C42.1929 25.5703 41.4306 25.1792 40.5159 25.1792C39.6144 25.1792 38.8322 25.5703 38.1694 26.3525C37.533 27.1346 37.2149 28.0759 37.2149 29.1762ZM37.1154 32.9147C36.2405 31.8939 35.803 30.6478 35.803 29.1762C35.803 27.7047 36.2471 26.4585 37.1353 25.4377C38.0235 24.4037 39.1438 23.8867 40.496 23.8867C41.8482 23.8867 42.9618 24.397 43.8368 25.4178C44.7118 26.4254 45.1492 27.6716 45.1492 29.1564C45.1492 30.6279 44.6985 31.8741 43.797 32.8949C42.9088 33.9157 41.7886 34.4261 40.4363 34.4261C39.0974 34.4261 37.9904 33.9223 37.1154 32.9147Z" fill="black"/>
<path d="M27 1.25C41.2213 1.25 52.75 12.7787 52.75 27C52.75 41.2213 41.2213 52.75 27 52.75C12.7787 52.75 1.25 41.2213 1.25 27C1.25 12.7787 12.7787 1.25 27 1.25Z" stroke="black" stroke-width="1.5"/>
</svg>
