<svg width="61" height="33" viewBox="0 0 61 33" fill="none" xmlns="http://www.w3.org/2000/svg">
<path d="M14.8038 9.14458L14.771 17.3283V22.7289C14.771 26.1747 14.0287 28.7481 12.544 30.4488C11.0811 32.1495 9.23603 33 7.0089 33C4.80362 33 3.07868 32.2933 1.83411 30.8795C0.61138 29.4439 0 27.8535 0 26.1084C0 24.3633 0.52403 22.9168 1.57209 21.7681C2.62015 20.5975 3.83197 20.012 5.20755 20.012C6.60497 20.012 7.70763 20.4318 8.51549 21.2711C9.32338 22.1103 9.72731 23.1374 9.72731 24.3524C9.72731 25.5674 9.31247 26.4507 8.48274 27.003C8.22072 27.1577 8.01331 27.2349 7.86045 27.2349C7.53293 27.2349 7.39102 27.0693 7.43468 26.738C7.43468 26.7158 7.46743 26.5832 7.53293 26.3404C7.66394 25.744 7.72944 25.1585 7.72944 24.5843C7.72944 23.988 7.48928 23.4469 7.0089 22.9608C6.52856 22.4529 5.90628 22.1988 5.14205 22.1988C4.37785 22.1988 3.72281 22.5855 3.17693 23.3584C2.63109 24.1095 2.35814 25.0591 2.35814 26.2078C2.35814 27.3784 2.7621 28.4277 3.56996 29.3554C4.37785 30.2831 5.4805 30.747 6.8779 30.747C8.6465 30.747 10.0221 30.029 11.0046 28.5934C11.9872 27.1796 12.4785 25.2139 12.4785 22.6958C12.4785 16.6657 12.4567 12.1374 12.413 9.11145C12.3912 6.08545 12.3802 4.03124 12.3802 2.9488C11.1138 3.14759 10.033 3.24699 9.13778 3.24699C4.4215 3.24699 2.06337 2.5512 2.06337 1.15964C2.06337 0.386557 2.47824 0 3.30794 0C3.41713 0 4.12674 0.143562 5.43681 0.430721C6.74689 0.695782 7.96965 0.828313 9.10503 0.828313C10.2623 0.828313 11.616 0.695782 13.1663 0.430721C14.7383 0.143562 15.601 0 15.7536 0C16.6706 0 17.1292 0.375491 17.1292 1.12651C17.1292 1.85542 16.3759 2.35241 14.8693 2.61747V3.08132L14.8038 9.14458ZM33.36 17.1958C33.36 18.8083 33.4694 20.1555 33.6875 21.238C33.9279 22.2982 34.2227 22.8946 34.5718 23.0271C34.7028 23.0934 34.8558 23.1374 35.0304 23.1596C35.2269 23.1818 35.3579 23.215 35.4234 23.259C35.5108 23.3031 35.5544 23.3916 35.5544 23.5241C35.5544 24.1427 35.3906 24.6397 35.0631 25.0151C34.7356 25.3686 34.2555 25.5452 33.622 25.5452C33.0109 25.5452 32.5304 25.1476 32.181 24.3524C31.8318 23.535 31.6569 22.4748 31.6569 21.1717C31.0674 22.4529 30.2486 23.5019 29.2005 24.3193C28.1525 25.1367 26.9626 25.5452 25.6306 25.5452C24.3205 25.5452 23.1961 25.1035 22.2571 24.2199C20.5105 22.5855 19.637 20.2771 19.637 17.2952C19.637 14.8874 20.3248 12.7892 21.7003 11C23.0759 9.21084 24.8445 8.31626 27.0062 8.31626C28.6437 8.31626 30.0632 8.87952 31.2639 10.006C31.2639 8.87952 31.6789 8.31626 32.5085 8.31626C33.513 8.31626 34.0151 9.07831 34.0151 10.6024C34.0151 12.1043 33.7969 14.3023 33.36 17.1958ZM31.4604 17.494L31.2967 12.3916C30.0085 11.1103 28.6437 10.4699 27.2027 10.4699C25.7616 10.4699 24.5281 11.1216 23.5017 12.4247C22.4756 13.7278 21.9624 15.3072 21.9624 17.1626C21.9624 18.9959 22.301 20.4981 22.9777 21.6687C23.6547 22.8174 24.5937 23.3916 25.7943 23.3916C26.9953 23.3916 28.0981 22.8505 29.1023 21.7681C30.1287 20.6856 30.9148 19.2609 31.4604 17.494ZM41.6885 1.68976L41.5247 12.7892L41.6885 23.8886C41.6885 24.9929 41.2735 25.5452 40.4439 25.5452C39.6143 25.5452 39.1994 24.9929 39.1994 23.8886L39.3631 12.7892L39.1994 1.68976C39.1994 0.585352 39.6143 0.033132 40.4439 0.033132C41.2735 0.033132 41.6885 0.585352 41.6885 1.68976ZM47.932 16.9639C47.932 18.7971 48.4344 20.3543 49.4386 21.6355C50.4431 22.9168 51.6985 23.5572 53.205 23.5572C54.7336 23.5572 56.0217 22.9168 57.0698 21.6355C58.1398 20.3324 58.6746 18.7639 58.6746 16.9307C58.6746 15.0975 58.1617 13.5403 57.1353 12.259C56.1311 10.9559 54.8754 10.3042 53.3688 10.3042C51.8842 10.3042 50.596 10.9559 49.5041 12.259C48.456 13.5621 47.932 15.1306 47.932 16.9639ZM47.7682 23.1928C46.3272 21.4921 45.6066 19.4157 45.6066 16.9639C45.6066 14.5121 46.3383 12.4356 47.801 10.7349C49.264 9.01205 51.1089 8.1506 53.3361 8.1506C55.5632 8.1506 57.3973 9.00111 58.8384 10.7018C60.2795 12.3806 61 14.4567 61 16.9307C61 19.3825 60.2578 21.4589 58.7729 23.1596C57.3102 24.8603 55.4649 25.7108 53.2378 25.7108C51.0326 25.7108 49.2093 24.8716 47.7682 23.1928Z" fill="#999999"/>
</svg>
